<svg width="36" height="36" viewBox="0 0 36 36" fill="none" xmlns="http://www.w3.org/2000/svg">
<path fill-rule="evenodd" clip-rule="evenodd" d="M4.15658 32.8465C4.56742 33.0156 5.00385 33.0364 5.43676 32.9509L5.44295 32.9496C8.81482 32.2539 11.6397 31.2237 13.894 29.84L13.8984 29.8372C15.7636 28.6745 17.1942 27.2065 18.1708 25.4346C18.9722 26.5434 19.8881 27.5259 20.9189 28.3799L20.9234 28.3836C22.2962 29.503 23.7996 30.4284 25.4319 31.1594L25.4353 31.1608C27.0725 31.8844 28.7441 32.4386 30.4496 32.8225L30.4592 32.8246L30.4689 32.8266C30.9228 32.9162 31.374 32.8747 31.7971 32.6841C32.3189 32.4597 32.6526 32.0345 32.7884 31.4979L32.7915 31.4854L32.7943 31.4729C32.9011 30.9805 32.8065 30.5026 32.5257 30.0864L32.5171 30.0737L32.508 30.0613C32.2156 29.6641 31.8027 29.4293 31.3226 29.3601C28.7515 28.9596 26.4814 28.1427 24.501 26.9183C22.9573 25.9374 21.6821 24.7728 20.6682 23.4249H31.3378C31.7745 23.4249 32.1953 23.286 32.5255 22.9599L32.5412 22.9444L32.5559 22.928C32.8464 22.6052 33 22.2094 33 21.7737C33 21.3367 32.8442 20.9336 32.5255 20.6187C32.1953 20.2925 31.7745 20.1536 31.3378 20.1536H27.7153V18.4176C27.7153 17.1877 27.5542 16.1402 27.1729 15.3344C26.767 14.455 26.0613 13.8414 25.1234 13.49C24.2458 13.1535 23.1041 13.0063 21.7434 13.0063H19.6623V11.2392C19.6623 10.7773 19.5056 10.3362 19.1408 10.0069C18.8099 9.68754 18.3939 9.52583 17.9371 9.52583C17.4803 9.52583 17.0643 9.68754 16.7334 10.0069C16.3686 10.3362 16.2119 10.7773 16.2119 11.2392V13.0063H14.1937C12.8314 13.0063 11.6886 13.1539 10.8105 13.4912C9.88938 13.8451 9.1988 14.461 8.7957 15.3343C8.41442 16.1402 8.25332 17.1876 8.25332 18.4176V20.1536H4.66225C4.22557 20.1536 3.80474 20.2925 3.47457 20.6187C3.15578 20.9336 3 21.3367 3 21.7737C3 22.2094 3.15367 22.6052 3.44413 22.928L3.45888 22.9444L3.47457 22.9599C3.80474 23.286 4.22558 23.4249 4.66225 23.4249H15.3611C14.6672 24.9207 13.5673 26.1322 12.0423 27.0684C10.1535 28.207 7.6919 29.0524 4.62922 29.5804L4.61521 29.5828L4.6013 29.5857C4.16181 29.6788 3.77135 29.8938 3.48172 30.2514L3.47084 30.2649L3.46059 30.2788C3.14686 30.705 3.07581 31.2037 3.21473 31.6963C3.34195 32.1877 3.63387 32.6313 4.15658 32.8465ZM23.3703 16.4795L23.3832 16.4843L23.3962 16.4886C23.7229 16.5961 23.8878 16.7615 23.9809 16.9759C24.1089 17.2711 24.202 17.7816 24.202 18.573V20.1536H19.6314C19.652 19.8029 19.6623 19.4521 19.6623 19.1013V16.2465H21.4288C22.3638 16.2465 22.9921 16.3394 23.3703 16.4795ZM12.5723 16.4886L12.5807 16.4858L12.5891 16.4828C12.9956 16.3382 13.6307 16.2465 14.5397 16.2465H16.2119V19.1013C16.2119 19.3945 16.2021 19.6878 16.1823 19.9811C16.1781 20.0386 16.1735 20.0961 16.1685 20.1536H11.7666V18.573C11.7666 17.7816 11.8597 17.2711 11.9877 16.9759C12.0807 16.7615 12.2457 16.5961 12.5723 16.4886Z" fill="#FBFBFC"/>
<path d="M12.3454 12.1146L12.3611 12.13L12.3777 12.1446C12.7154 12.4411 13.1267 12.5796 13.5646 12.5796C14.0025 12.5796 14.4138 12.4411 14.7515 12.1446L14.7681 12.13L14.7837 12.1146C15.1291 11.7734 15.2898 11.3362 15.2898 10.8663V9.47207H20.6159V10.8663C20.6159 11.3107 20.7492 11.7372 21.06 12.0827L21.0896 12.1155L21.1227 12.1446C21.4604 12.4411 21.8717 12.5796 22.3096 12.5796C22.7495 12.5796 23.1881 12.4511 23.5288 12.1146C23.8742 11.7734 24.0348 11.3362 24.0348 10.8663V9.47207H30.5199C30.9566 9.47207 31.3774 9.33318 31.7076 9.00702L31.7233 8.99152L31.738 8.97513C32.0285 8.65233 32.1822 8.25656 32.1822 7.82088C32.1822 7.39106 32.0315 6.99401 31.7232 6.68143C31.4016 6.3333 30.9774 6.16969 30.5199 6.16969H24.0348V4.71334C24.0348 4.25823 23.8827 3.8233 23.5293 3.49563C23.1981 3.14706 22.7623 3 22.3096 3C21.8458 3 21.4239 3.16678 21.0905 3.49612C20.7486 3.83385 20.6159 4.27183 20.6159 4.71334V6.16969H15.2898V4.71334C15.2898 4.25147 15.1331 3.81037 14.7683 3.48109C14.4374 3.1617 14.0213 3 13.5646 3C13.1078 3 12.6918 3.1617 12.3608 3.48109C11.9961 3.81037 11.8394 4.25147 11.8394 4.71334V6.16969H5.25994C4.80248 6.16969 4.37825 6.33329 4.05668 6.6814C3.74839 6.99399 3.59768 7.39105 3.59768 7.82088C3.59768 8.25656 3.75135 8.65232 4.04181 8.97513L4.07132 9.00792L4.10447 9.03703C4.43035 9.32318 4.82654 9.47207 5.25994 9.47207H11.8394V10.8663C11.8394 11.3362 12 11.7733 12.3454 12.1146Z" fill="#FBFBFC"/>
</svg>
