<svg width="36" height="36" viewBox="0 0 36 36" fill="none" xmlns="http://www.w3.org/2000/svg">
<path opacity="0.75" fill-rule="evenodd" clip-rule="evenodd" d="M7.65918 29.5971C6.85095 29.8289 6.13407 30.0375 5.5083 30.2228C4.99356 30.3875 4.45645 30.3494 3.9698 30.0702L3.9251 30.0445L3.88348 30.0141C3.46365 29.7075 3.20153 29.2798 3.07246 28.7984L3.07028 28.7903L3.06825 28.7821C2.93456 28.2452 2.98471 27.6748 3.33115 27.1779C3.61348 26.7729 4.00751 26.4855 4.49132 26.3547C5.06524 26.1901 5.69898 26.0142 6.39228 25.827C6.85926 25.7009 7.33109 25.5694 7.80777 25.4325V17.8504H5.59764C5.08409 17.8504 4.61775 17.6578 4.25587 17.2886L4.21762 17.2496L4.18417 17.2064C3.88672 16.8224 3.74335 16.3722 3.74335 15.8959C3.74335 15.4205 3.88724 14.9588 4.21853 14.5786C4.56905 14.1764 5.04564 13.9414 5.59764 13.9414H7.80777V7.75062H5.26148C4.74794 7.75062 4.2816 7.55802 3.91971 7.18888L3.88147 7.14986L3.84801 7.10667C3.55056 6.72267 3.40719 6.27247 3.40719 5.79613C3.40719 5.3208 3.55109 4.85902 3.88238 4.47885C4.23289 4.07662 4.70948 3.84165 5.26148 3.84165H14.0626C14.61 3.84165 15.0901 4.07454 15.4288 4.49932C15.5851 4.6838 15.6981 4.88691 15.7728 5.10107C15.9301 4.83005 16.1143 4.58437 16.3281 4.36713C17.3021 3.37716 18.8041 3 20.5718 3H25.4308C27.1958 3 28.6958 3.37597 29.67 4.36245C30.6737 5.35816 31.0439 6.95355 31.0439 8.8471V13.932C31.0439 15.833 30.6707 17.431 29.6757 18.4459L29.6746 18.4471C28.7006 19.4371 27.1985 19.8142 25.4308 19.8142H24.8709V22.3929H29.8619C30.4034 22.3929 30.89 22.6234 31.216 23.0727C31.5217 23.4445 31.6551 23.8897 31.6551 24.3474C31.6551 24.8201 31.4998 25.2543 31.2143 25.6229C30.8704 26.0701 30.375 26.2668 29.8619 26.2668H24.8709V29.1261H31.2066C31.7481 29.1261 32.2346 29.3566 32.5606 29.8059C32.8663 30.1777 32.9997 30.6229 32.9997 31.0806C32.9997 31.5369 32.854 31.9643 32.5603 32.3206C32.2344 32.7696 31.7479 33 31.2066 33H14.2154C13.6624 33 13.2017 32.7462 12.8799 32.3424C12.574 31.9818 12.4223 31.5463 12.4223 31.0806C12.4223 30.6138 12.561 30.1601 12.8798 29.7839C13.2015 29.3799 13.6623 29.1261 14.2154 29.1261H21.1317V26.2668H16.5991C16.3379 26.2668 16.086 26.2165 15.8549 26.114C15.8406 26.1528 15.8251 26.1914 15.8083 26.2298C15.5894 26.7324 15.1846 27.06 14.7238 27.2489L14.7135 27.2531L14.7032 27.257C14.1431 27.4713 13.4627 27.7196 12.6634 28.0018L12.6552 28.0048L12.6468 28.0075C11.8714 28.2651 11.0553 28.5344 10.1986 28.8152C9.33251 29.0992 8.48602 29.3599 7.65918 29.5971ZM5.2123 6.81203C5.22853 6.81276 5.24493 6.81312 5.26148 6.81312H8.74527M14.0626 7.75062C14.4247 7.75062 14.769 7.65398 15.0646 7.45542C15.0129 7.89631 14.9893 8.36188 14.9893 8.8471V13.932C14.9893 14.1607 14.9945 14.385 15.0055 14.6044L15.0009 14.5991C14.6622 14.1743 14.1822 13.9414 13.6348 13.9414H11.5469V7.75062H14.0626ZM16.3177 18.4364C15.8621 17.9583 15.5409 17.3519 15.3287 16.6459C15.2561 16.8439 15.1528 17.032 15.0177 17.2064L15.0011 17.2278L14.9833 17.2482C14.6291 17.6547 14.1499 17.8504 13.6348 17.8504H11.5469V24.2799C11.7354 24.2245 11.9219 24.1704 12.1063 24.1175C12.652 23.9384 13.1375 23.7713 13.5637 23.616C13.9737 23.443 14.451 23.392 14.9117 23.5906C14.9858 23.3991 15.0917 23.2172 15.2329 23.0506C15.5716 22.6258 16.0517 22.3929 16.5991 22.3929H21.1317V19.8142H20.5718C18.8041 19.8142 17.3021 19.4371 16.3281 18.4471L16.3229 18.4418L16.3177 18.4364ZM25.3391 16.0806H24.8709V13.2213H27.3353V13.932C27.3353 15.0509 27.1175 15.5335 26.9559 15.7014C26.8011 15.8621 26.3687 16.0806 25.3391 16.0806ZM18.6673 13.2213H21.1317V16.0806H20.6941C19.686 16.0806 19.2256 15.8711 19.0396 15.6938C18.8787 15.5191 18.6673 15.0344 18.6673 13.932V13.2213ZM24.8709 9.52276H27.3353V8.88217C27.3353 7.76328 27.1175 7.28067 26.9559 7.11279C26.8011 6.95207 26.3687 6.73363 25.3391 6.73363H24.8709V9.52276ZM20.6941 6.73363H21.1317V9.52276H18.6673V8.88217C18.6673 7.77985 18.8787 7.2951 19.0396 7.12046C19.2256 6.94309 19.686 6.73363 20.6941 6.73363Z" fill="#FBFBFC"/>
</svg>
