<svg width="512" height="512" viewBox="0 0 512 512" fill="none" xmlns="http://www.w3.org/2000/svg">
<rect width="512" height="512" rx="100" fill="#008080"/>
<path opacity="0.5" d="M102.4 221.867C102.4 157.504 102.4 125.323 122.395 105.328C142.39 85.3333 174.571 85.3333 238.933 85.3333H273.067C337.429 85.3333 369.61 85.3333 389.605 105.328C409.6 125.323 409.6 157.504 409.6 221.867V290.133C409.6 354.496 409.6 386.677 389.605 406.672C369.61 426.667 337.429 426.667 273.067 426.667H238.933C174.571 426.667 142.39 426.667 122.395 406.672C102.4 386.677 102.4 354.496 102.4 290.133V221.867Z" fill="#FBFBFC"/>
<path d="M333.122 332.822C336.109 330.493 338.818 327.784 344.236 322.366L412.997 253.604L412.998 253.604C414.081 252.52 414.623 251.978 414.491 251.433C414.359 250.887 413.612 250.648 412.119 250.171C411.584 250 411.037 249.818 410.479 249.624C402.507 246.859 392.136 241.666 382.435 231.965C372.734 222.264 367.541 211.893 364.776 203.921C364.582 203.363 364.4 202.816 364.229 202.281L364.229 202.281C363.752 200.788 363.513 200.041 362.967 199.909C362.422 199.777 361.88 200.319 360.796 201.403L292.034 270.164L292.034 270.165C286.616 275.582 283.907 278.291 281.578 281.278C278.83 284.801 276.474 288.613 274.551 292.647C272.922 296.066 271.71 299.7 269.287 306.969L266.157 316.361L261.179 331.295L256.511 345.298C255.319 348.875 256.25 352.818 258.916 355.484C261.582 358.15 265.525 359.081 269.102 357.889L283.105 353.221L298.039 348.243L307.431 345.113L307.432 345.112C314.7 342.69 318.334 341.478 321.753 339.849C325.787 337.926 329.599 335.57 333.122 332.822Z" fill="#FBFBFC"/>
<path d="M432.922 233.68C447.337 219.265 447.337 195.893 432.922 181.478C418.507 167.063 395.135 167.063 380.72 181.478L375.915 186.283C375.583 186.615 375.417 186.781 375.344 187.012C375.27 187.243 375.308 187.469 375.384 187.919C375.581 189.085 375.91 190.934 376.028 191.588C376.357 193.423 376.967 196.105 378.078 199.306C380.299 205.707 384.492 214.11 392.391 222.009C400.29 229.908 408.693 234.101 415.094 236.322C418.295 237.433 420.977 238.043 422.812 238.372C423.466 238.49 425.315 238.819 426.481 239.016C426.931 239.092 427.157 239.13 427.388 239.056C427.619 238.983 427.785 238.817 428.117 238.485L432.922 233.68Z" fill="#FBFBFC"/>
<path fill-rule="evenodd" clip-rule="evenodd" d="M174.933 204.8C174.933 197.731 180.664 192 187.733 192H298.667C305.736 192 311.467 197.731 311.467 204.8C311.467 211.869 305.736 217.6 298.667 217.6H187.733C180.664 217.6 174.933 211.869 174.933 204.8ZM174.933 273.067C174.933 265.997 180.664 260.267 187.733 260.267H238.933C246.003 260.267 251.733 265.997 251.733 273.067C251.733 280.136 246.003 285.867 238.933 285.867H187.733C180.664 285.867 174.933 280.136 174.933 273.067ZM174.933 341.333C174.933 334.264 180.664 328.533 187.733 328.533H213.333C220.403 328.533 226.133 334.264 226.133 341.333C226.133 348.403 220.403 354.133 213.333 354.133H187.733C180.664 354.133 174.933 348.403 174.933 341.333Z" fill="#FBFBFC"/>
</svg>
