<svg width="36" height="36" viewBox="0 0 36 36" fill="none" xmlns="http://www.w3.org/2000/svg">
<path fill-rule="evenodd" clip-rule="evenodd" d="M22.158 16.9724H17.9758C17.4691 16.9724 17.0141 16.7859 16.6472 16.4512L16.629 16.4346L16.6117 16.417C16.2514 16.0519 16.0689 15.5879 16.0689 15.0831C16.0689 14.579 16.2375 14.0977 16.6117 13.7185L16.629 13.7009L16.6472 13.6843C17.0141 13.3497 17.4691 13.1631 17.9758 13.1631H22.158V5.01214C22.158 4.50806 22.3266 4.02675 22.7008 3.64751L22.7181 3.62995L22.7363 3.61332C23.1032 3.27869 23.5582 3.09211 24.0649 3.09211C24.566 3.09211 25.0231 3.27582 25.3813 3.63008C25.7762 3.99939 25.9718 4.48441 25.9718 5.01214V13.1631H30.0934C30.6027 13.1631 31.0665 13.3528 31.4272 13.7185C31.8014 14.0977 31.97 14.579 31.97 15.0831C31.97 15.5879 31.7875 16.0519 31.4272 16.417C31.0664 16.7827 30.6027 16.9724 30.0934 16.9724H25.9718V27.809H31.1234C31.6216 27.809 32.1102 27.9794 32.4761 28.3837C32.8371 28.7599 33 29.2334 33 29.729C33 30.225 32.8238 30.6816 32.476 31.0437C32.1101 31.4479 31.6216 31.6183 31.1234 31.6183H16.6125C16.1033 31.6183 15.6395 31.4286 15.2787 31.0629C14.9185 30.6978 14.7359 30.2338 14.7359 29.729C14.7359 29.2249 14.9046 28.7436 15.2787 28.3644C15.6395 27.9987 16.1033 27.809 16.6125 27.809H22.158V16.9724ZM14.9935 16.9008C15.5528 17.2449 16.1018 17.5788 16.6408 17.9025C17.1882 18.2313 17.6466 18.51 18.015 18.7382L18.0223 18.7427L18.0295 18.7474C18.4625 19.0266 18.7436 19.4404 18.8578 19.9332C18.9835 20.4534 18.8659 20.9494 18.5826 21.3637C18.305 21.8212 17.8768 22.1192 17.3568 22.2322L17.3297 22.2381L17.3023 22.2424C16.8116 22.3189 16.3408 22.2163 15.9234 21.9695L15.9133 21.9636C15.3929 21.6471 14.7449 21.2298 13.9719 20.7144L13.9599 20.7064L13.9481 20.698C13.7412 20.5506 13.5382 20.4064 13.3392 20.2654V31.1107C13.3392 31.6155 13.1566 32.0795 12.7964 32.4446C12.4213 32.8248 11.9402 33 11.4323 33C10.923 33 10.4592 32.8103 10.0984 32.4446C9.7382 32.0795 9.55565 31.6155 9.55565 31.1107V21.5603C9.27163 21.8078 8.98392 22.0504 8.69253 22.2881C7.84722 22.9777 6.99074 23.6262 6.12304 24.2334L6.11675 24.2378L6.11039 24.2421C5.69982 24.5196 5.22968 24.6515 4.73017 24.6153C4.15076 24.5734 3.67377 24.2816 3.35876 23.8123C3.06717 23.3983 2.94541 22.913 3.02275 22.4035L3.0279 22.3696L3.03553 22.3361C3.15448 21.8136 3.46633 21.3987 3.91739 21.1288C4.96367 20.4802 6.00512 19.7209 7.04145 18.849C8.10595 17.9498 9.10009 17.0119 10.0243 16.0353C10.9673 15.0397 11.7539 14.0835 12.3884 13.1676L12.3951 13.1578C12.503 13.0062 12.5783 12.8822 12.6296 12.7839C12.5396 12.7733 12.4246 12.766 12.2805 12.766H5.82787C5.35133 12.766 4.91633 12.5966 4.56418 12.2794L4.5437 12.2609L4.52434 12.2413C4.17977 11.892 3.98154 11.4444 3.98154 10.938C3.98154 10.4317 4.17977 9.98405 4.52434 9.63482C4.86899 9.2855 5.3164 9.07942 5.82787 9.07942H9.40418V4.92003C9.40418 4.41594 9.57279 3.93464 9.94697 3.5554L9.9643 3.53783L9.98253 3.52121C10.3494 3.18658 10.8044 3 11.3111 3C11.8204 3 12.2841 3.18973 12.6449 3.55539C13.0191 3.93463 13.1877 4.41594 13.1877 4.92003V9.09271C14.5579 9.17538 15.7445 9.65482 16.3042 10.8344C16.924 12.0737 16.5377 13.4333 15.6993 14.7079C15.4053 15.1549 15.091 15.6007 14.7566 16.0456C14.6382 16.2032 14.5184 16.3595 14.3972 16.5144C14.5867 16.6365 14.7855 16.7653 14.9935 16.9008ZM12.7235 12.5468L12.7232 12.5495Z" fill="#FBFBFC"/>
</svg>
